<svg id="flags" xmlns="http://www.w3.org/2000/svg" xmlns:xlink="http://www.w3.org/1999/xlink" viewBox="0 0 162 116"><defs><style>.cls-1{fill:none;}.cls-2{fill:#00247d;}.cls-3{clip-path:url(#clip-path);}.cls-4{fill:#fff;}.cls-5{clip-path:url(#clip-path-2);}.cls-6{clip-path:url(#clip-path-3);}.cls-7{fill:#cf142b;}</style><clipPath id="clip-path"><rect class="cls-1" x="-0.03" y="17.49" width="162.14" height="81.07"/></clipPath><clipPath id="clip-path-2"><path class="cls-1" d="M0,17.49V58H189.14V98.56h-27Zm162.14,0H81v94.58H0V98.56Z"/></clipPath><clipPath id="clip-path-3"><rect class="cls-1" x="-0.07" y="17.46" width="162.14" height="81.07"/></clipPath></defs><title>gbr</title><g id="United_Kingdom" data-name="United Kingdom"><path class="cls-2" d="M0,17.49v81H162v-81Z"/><g class="cls-3"><path d="M0,17.49,162.11,98.56m0-81.07L0,98.56"/><polygon class="cls-4" points="159.09 104.6 81.04 65.57 2.99 104.6 -3.05 92.52 65.94 58.02 -3.05 23.52 2.99 11.45 81.04 50.47 159.09 11.45 165.13 23.52 96.14 58.02 165.13 92.52 159.09 104.6"/></g><g class="cls-5"><g class="cls-6"><path d="M0,17.49,162.11,98.56m0-81.07L0,98.56"/><polygon class="cls-7" points="160.3 102.18 81.04 62.55 1.78 102.18 -1.84 94.93 71.98 58.02 -1.84 21.11 1.78 13.86 81.04 53.49 160.3 13.86 163.93 21.11 90.1 58.02 163.93 94.93 160.3 102.18"/></g></g><path d="M81,17.49V98.56M0,58H162.11"/><polygon class="cls-4" points="94.55 98.56 67.54 98.56 67.54 71.53 -0.03 71.53 -0.03 44.52 67.54 44.52 67.54 17.48 94.55 17.48 94.55 44.52 162.11 44.52 162.11 71.53 94.55 71.53 94.55 98.56"/><path d="M81,17.49V98.56M0,58H162.11"/><polygon class="cls-7" points="89.14 98.56 72.94 98.56 72.94 66.12 -0.03 66.12 -0.03 49.92 72.94 49.92 72.94 17.48 89.14 17.48 89.14 49.92 162.11 49.92 162.11 66.12 89.14 66.12 89.14 98.56"/></g></svg>